<svg width="16" height="16" viewBox="0 0 16 16" fill="none" xmlns="http://www.w3.org/2000/svg">
<path d="M12.3 6.49997C12.8 5.99997 13.2 5.69997 13.5 5.39997C15.1 3.79997 16.7 1.29997 15.7 0.299972C14.7 -0.700028 12.3 0.899972 10.7 2.49997C10.4 2.79997 10.1 3.19997 9.6 3.69997L2.6 0.499972C1.9 0.199972 1.1 0.299972 0.6 0.799972L0 1.29997L6.6 6.99997C5.3 8.59997 3.9 10.1 3.2 11L2.1 10.4C1.6 10.1 0.9 10.1 0.5 10.6L0.2 10.9L3 13L5 15.8L5.3 15.5C5.7 15.1 5.8 14.4 5.5 13.9L5 12.8C5.9 12.1 7.4 10.7 9 9.39997L14.7 16L15.2 15.5C15.7 15 15.8 14.2 15.5 13.5L12.3 6.49997Z" fill="#ED7D31"/>
</svg>
